<svg width="640" height="384" viewBox="0 0 640 384" fill="none" xmlns="http://www.w3.org/2000/svg">
<circle cx="237" cy="192" r="168" fill="#444444"/>
<circle cx="403" cy="192" r="168" fill="#FFDB2F"/>
<path d="M235.032 190.5C236.065 142.428 255 84.5 320 45.9062V338.094C256.524 302.094 234.032 237 235.032 190.5Z" fill="#F7971E"/>
<path d="M404.968 190.5C403.935 142.428 385 84.5 320 45.9062V338.094C383.476 302.094 405.968 237 404.968 190.5Z" fill="#F7971E"/>
<path d="M89.9805 198V180.938H94.7969C96.2812 180.938 97.5938 181.266 98.7344 181.922C99.875 182.578 100.754 183.512 101.371 184.723C101.996 185.934 102.312 187.324 102.32 188.895V189.984C102.32 191.594 102.008 193.004 101.383 194.215C100.766 195.426 99.8789 196.355 98.7227 197.004C97.5742 197.652 96.2344 197.984 94.7031 198H89.9805ZM92.2305 182.789V196.16H94.5977C96.332 196.16 97.6797 195.621 98.6406 194.543C99.6094 193.465 100.094 191.93 100.094 189.938V188.941C100.094 187.004 99.6367 185.5 98.7227 184.43C97.8164 183.352 96.5273 182.805 94.8555 182.789H92.2305ZM107.746 198H105.578V185.32H107.746V198ZM105.402 181.957C105.402 181.605 105.508 181.309 105.719 181.066C105.938 180.824 106.258 180.703 106.68 180.703C107.102 180.703 107.422 180.824 107.641 181.066C107.859 181.309 107.969 181.605 107.969 181.957C107.969 182.309 107.859 182.602 107.641 182.836C107.422 183.07 107.102 183.188 106.68 183.188C106.258 183.188 105.938 183.07 105.719 182.836C105.508 182.602 105.402 182.309 105.402 181.957ZM119.055 198C118.93 197.75 118.828 197.305 118.75 196.664C117.742 197.711 116.539 198.234 115.141 198.234C113.891 198.234 112.863 197.883 112.059 197.18C111.262 196.469 110.863 195.57 110.863 194.484C110.863 193.164 111.363 192.141 112.363 191.414C113.371 190.68 114.785 190.312 116.605 190.312H118.715V189.316C118.715 188.559 118.488 187.957 118.035 187.512C117.582 187.059 116.914 186.832 116.031 186.832C115.258 186.832 114.609 187.027 114.086 187.418C113.562 187.809 113.301 188.281 113.301 188.836H111.121C111.121 188.203 111.344 187.594 111.789 187.008C112.242 186.414 112.852 185.945 113.617 185.602C114.391 185.258 115.238 185.086 116.16 185.086C117.621 185.086 118.766 185.453 119.594 186.188C120.422 186.914 120.852 187.918 120.883 189.199V195.035C120.883 196.199 121.031 197.125 121.328 197.812V198H119.055ZM115.457 196.348C116.137 196.348 116.781 196.172 117.391 195.82C118 195.469 118.441 195.012 118.715 194.449V191.848H117.016C114.359 191.848 113.031 192.625 113.031 194.18C113.031 194.859 113.258 195.391 113.711 195.773C114.164 196.156 114.746 196.348 115.457 196.348ZM123.766 191.555C123.766 189.578 124.223 188.008 125.137 186.844C126.051 185.672 127.262 185.086 128.77 185.086C130.316 185.086 131.523 185.633 132.391 186.727L132.496 185.32H134.477V197.695C134.477 199.336 133.988 200.629 133.012 201.574C132.043 202.52 130.738 202.992 129.098 202.992C128.184 202.992 127.289 202.797 126.414 202.406C125.539 202.016 124.871 201.48 124.41 200.801L125.535 199.5C126.465 200.648 127.602 201.223 128.945 201.223C130 201.223 130.82 200.926 131.406 200.332C132 199.738 132.297 198.902 132.297 197.824V196.734C131.43 197.734 130.246 198.234 128.746 198.234C127.262 198.234 126.059 197.637 125.137 196.441C124.223 195.246 123.766 193.617 123.766 191.555ZM125.945 191.801C125.945 193.23 126.238 194.355 126.824 195.176C127.41 195.988 128.23 196.395 129.285 196.395C130.652 196.395 131.656 195.773 132.297 194.531V188.742C131.633 187.531 130.637 186.926 129.309 186.926C128.254 186.926 127.43 187.336 126.836 188.156C126.242 188.977 125.945 190.191 125.945 191.801ZM139.809 185.32L139.879 186.914C140.848 185.695 142.113 185.086 143.676 185.086C146.355 185.086 147.707 186.598 147.73 189.621V198H145.562V189.609C145.555 188.695 145.344 188.02 144.93 187.582C144.523 187.145 143.887 186.926 143.02 186.926C142.316 186.926 141.699 187.113 141.168 187.488C140.637 187.863 140.223 188.355 139.926 188.965V198H137.758V185.32H139.809ZM150.426 191.543C150.426 190.301 150.668 189.184 151.152 188.191C151.645 187.199 152.324 186.434 153.191 185.895C154.066 185.355 155.062 185.086 156.18 185.086C157.906 185.086 159.301 185.684 160.363 186.879C161.434 188.074 161.969 189.664 161.969 191.648V191.801C161.969 193.035 161.73 194.145 161.254 195.129C160.785 196.105 160.109 196.867 159.227 197.414C158.352 197.961 157.344 198.234 156.203 198.234C154.484 198.234 153.09 197.637 152.02 196.441C150.957 195.246 150.426 193.664 150.426 191.695V191.543ZM152.605 191.801C152.605 193.207 152.93 194.336 153.578 195.188C154.234 196.039 155.109 196.465 156.203 196.465C157.305 196.465 158.18 196.035 158.828 195.176C159.477 194.309 159.801 193.098 159.801 191.543C159.801 190.152 159.469 189.027 158.805 188.168C158.148 187.301 157.273 186.867 156.18 186.867C155.109 186.867 154.246 187.293 153.59 188.145C152.934 188.996 152.605 190.215 152.605 191.801ZM172.07 194.637C172.07 194.051 171.848 193.598 171.402 193.277C170.965 192.949 170.195 192.668 169.094 192.434C168 192.199 167.129 191.918 166.48 191.59C165.84 191.262 165.363 190.871 165.051 190.418C164.746 189.965 164.594 189.426 164.594 188.801C164.594 187.762 165.031 186.883 165.906 186.164C166.789 185.445 167.914 185.086 169.281 185.086C170.719 185.086 171.883 185.457 172.773 186.199C173.672 186.941 174.121 187.891 174.121 189.047H171.941C171.941 188.453 171.688 187.941 171.18 187.512C170.68 187.082 170.047 186.867 169.281 186.867C168.492 186.867 167.875 187.039 167.43 187.383C166.984 187.727 166.762 188.176 166.762 188.73C166.762 189.254 166.969 189.648 167.383 189.914C167.797 190.18 168.543 190.434 169.621 190.676C170.707 190.918 171.586 191.207 172.258 191.543C172.93 191.879 173.426 192.285 173.746 192.762C174.074 193.23 174.238 193.805 174.238 194.484C174.238 195.617 173.785 196.527 172.879 197.215C171.973 197.895 170.797 198.234 169.352 198.234C168.336 198.234 167.438 198.055 166.656 197.695C165.875 197.336 165.262 196.836 164.816 196.195C164.379 195.547 164.16 194.848 164.16 194.098H166.328C166.367 194.824 166.656 195.402 167.195 195.832C167.742 196.254 168.461 196.465 169.352 196.465C170.172 196.465 170.828 196.301 171.32 195.973C171.82 195.637 172.07 195.191 172.07 194.637ZM180.004 182.25V185.32H182.371V186.996H180.004V194.859C180.004 195.367 180.109 195.75 180.32 196.008C180.531 196.258 180.891 196.383 181.398 196.383C181.648 196.383 181.992 196.336 182.43 196.242V198C181.859 198.156 181.305 198.234 180.766 198.234C179.797 198.234 179.066 197.941 178.574 197.355C178.082 196.77 177.836 195.938 177.836 194.859V186.996H175.527V185.32H177.836V182.25H180.004ZM187.27 198H185.102V185.32H187.27V198ZM184.926 181.957C184.926 181.605 185.031 181.309 185.242 181.066C185.461 180.824 185.781 180.703 186.203 180.703C186.625 180.703 186.945 180.824 187.164 181.066C187.383 181.309 187.492 181.605 187.492 181.957C187.492 182.309 187.383 182.602 187.164 182.836C186.945 183.07 186.625 183.188 186.203 183.188C185.781 183.188 185.461 183.07 185.242 182.836C185.031 182.602 184.926 182.309 184.926 181.957ZM195.836 196.465C196.609 196.465 197.285 196.23 197.863 195.762C198.441 195.293 198.762 194.707 198.824 194.004H200.875C200.836 194.73 200.586 195.422 200.125 196.078C199.664 196.734 199.047 197.258 198.273 197.648C197.508 198.039 196.695 198.234 195.836 198.234C194.109 198.234 192.734 197.66 191.711 196.512C190.695 195.355 190.188 193.777 190.188 191.777V191.414C190.188 190.18 190.414 189.082 190.867 188.121C191.32 187.16 191.969 186.414 192.812 185.883C193.664 185.352 194.668 185.086 195.824 185.086C197.246 185.086 198.426 185.512 199.363 186.363C200.309 187.215 200.812 188.32 200.875 189.68H198.824C198.762 188.859 198.449 188.188 197.887 187.664C197.332 187.133 196.645 186.867 195.824 186.867C194.723 186.867 193.867 187.266 193.258 188.062C192.656 188.852 192.355 189.996 192.355 191.496V191.906C192.355 193.367 192.656 194.492 193.258 195.281C193.859 196.07 194.719 196.465 195.836 196.465ZM211.141 198C211.016 197.75 210.914 197.305 210.836 196.664C209.828 197.711 208.625 198.234 207.227 198.234C205.977 198.234 204.949 197.883 204.145 197.18C203.348 196.469 202.949 195.57 202.949 194.484C202.949 193.164 203.449 192.141 204.449 191.414C205.457 190.68 206.871 190.312 208.691 190.312H210.801V189.316C210.801 188.559 210.574 187.957 210.121 187.512C209.668 187.059 209 186.832 208.117 186.832C207.344 186.832 206.695 187.027 206.172 187.418C205.648 187.809 205.387 188.281 205.387 188.836H203.207C203.207 188.203 203.43 187.594 203.875 187.008C204.328 186.414 204.938 185.945 205.703 185.602C206.477 185.258 207.324 185.086 208.246 185.086C209.707 185.086 210.852 185.453 211.68 186.188C212.508 186.914 212.938 187.918 212.969 189.199V195.035C212.969 196.199 213.117 197.125 213.414 197.812V198H211.141ZM207.543 196.348C208.223 196.348 208.867 196.172 209.477 195.82C210.086 195.469 210.527 195.012 210.801 194.449V191.848H209.102C206.445 191.848 205.117 192.625 205.117 194.18C205.117 194.859 205.344 195.391 205.797 195.773C206.25 196.156 206.832 196.348 207.543 196.348ZM222.496 187.266C222.168 187.211 221.812 187.184 221.43 187.184C220.008 187.184 219.043 187.789 218.535 189V198H216.367V185.32H218.477L218.512 186.785C219.223 185.652 220.23 185.086 221.535 185.086C221.957 185.086 222.277 185.141 222.496 185.25V187.266Z" fill="white"/>
<path d="M280.008 190.395C278.078 189.84 276.672 189.16 275.789 188.355C274.914 187.543 274.477 186.543 274.477 185.355C274.477 184.012 275.012 182.902 276.082 182.027C277.16 181.145 278.559 180.703 280.277 180.703C281.449 180.703 282.492 180.93 283.406 181.383C284.328 181.836 285.039 182.461 285.539 183.258C286.047 184.055 286.301 184.926 286.301 185.871H284.039C284.039 184.84 283.711 184.031 283.055 183.445C282.398 182.852 281.473 182.555 280.277 182.555C279.168 182.555 278.301 182.801 277.676 183.293C277.059 183.777 276.75 184.453 276.75 185.32C276.75 186.016 277.043 186.605 277.629 187.09C278.223 187.566 279.227 188.004 280.641 188.402C282.062 188.801 283.172 189.242 283.969 189.727C284.773 190.203 285.367 190.762 285.75 191.402C286.141 192.043 286.336 192.797 286.336 193.664C286.336 195.047 285.797 196.156 284.719 196.992C283.641 197.82 282.199 198.234 280.395 198.234C279.223 198.234 278.129 198.012 277.113 197.566C276.098 197.113 275.312 196.496 274.758 195.715C274.211 194.934 273.938 194.047 273.938 193.055H276.199C276.199 194.086 276.578 194.902 277.336 195.504C278.102 196.098 279.121 196.395 280.395 196.395C281.582 196.395 282.492 196.152 283.125 195.668C283.758 195.184 284.074 194.523 284.074 193.688C284.074 192.852 283.781 192.207 283.195 191.754C282.609 191.293 281.547 190.84 280.008 190.395ZM288.316 191.543C288.316 190.301 288.559 189.184 289.043 188.191C289.535 187.199 290.215 186.434 291.082 185.895C291.957 185.355 292.953 185.086 294.07 185.086C295.797 185.086 297.191 185.684 298.254 186.879C299.324 188.074 299.859 189.664 299.859 191.648V191.801C299.859 193.035 299.621 194.145 299.145 195.129C298.676 196.105 298 196.867 297.117 197.414C296.242 197.961 295.234 198.234 294.094 198.234C292.375 198.234 290.98 197.637 289.91 196.441C288.848 195.246 288.316 193.664 288.316 191.695V191.543ZM290.496 191.801C290.496 193.207 290.82 194.336 291.469 195.188C292.125 196.039 293 196.465 294.094 196.465C295.195 196.465 296.07 196.035 296.719 195.176C297.367 194.309 297.691 193.098 297.691 191.543C297.691 190.152 297.359 189.027 296.695 188.168C296.039 187.301 295.164 186.867 294.07 186.867C293 186.867 292.137 187.293 291.48 188.145C290.824 188.996 290.496 190.215 290.496 191.801ZM304.934 198H302.766V180H304.934V198ZM316.242 196.746C315.398 197.738 314.16 198.234 312.527 198.234C311.176 198.234 310.145 197.844 309.434 197.062C308.73 196.273 308.375 195.109 308.367 193.57V185.32H310.535V193.512C310.535 195.434 311.316 196.395 312.879 196.395C314.535 196.395 315.637 195.777 316.184 194.543V185.32H318.352V198H316.289L316.242 196.746ZM326.742 196.465C327.516 196.465 328.191 196.23 328.77 195.762C329.348 195.293 329.668 194.707 329.73 194.004H331.781C331.742 194.73 331.492 195.422 331.031 196.078C330.57 196.734 329.953 197.258 329.18 197.648C328.414 198.039 327.602 198.234 326.742 198.234C325.016 198.234 323.641 197.66 322.617 196.512C321.602 195.355 321.094 193.777 321.094 191.777V191.414C321.094 190.18 321.32 189.082 321.773 188.121C322.227 187.16 322.875 186.414 323.719 185.883C324.57 185.352 325.574 185.086 326.73 185.086C328.152 185.086 329.332 185.512 330.27 186.363C331.215 187.215 331.719 188.32 331.781 189.68H329.73C329.668 188.859 329.355 188.188 328.793 187.664C328.238 187.133 327.551 186.867 326.73 186.867C325.629 186.867 324.773 187.266 324.164 188.062C323.562 188.852 323.262 189.996 323.262 191.496V191.906C323.262 193.367 323.562 194.492 324.164 195.281C324.766 196.07 325.625 196.465 326.742 196.465ZM336.574 198H334.406V185.32H336.574V198ZM334.23 181.957C334.23 181.605 334.336 181.309 334.547 181.066C334.766 180.824 335.086 180.703 335.508 180.703C335.93 180.703 336.25 180.824 336.469 181.066C336.688 181.309 336.797 181.605 336.797 181.957C336.797 182.309 336.688 182.602 336.469 182.836C336.25 183.07 335.93 183.188 335.508 183.188C335.086 183.188 334.766 183.07 334.547 182.836C334.336 182.602 334.23 182.309 334.23 181.957ZM339.48 191.543C339.48 190.301 339.723 189.184 340.207 188.191C340.699 187.199 341.379 186.434 342.246 185.895C343.121 185.355 344.117 185.086 345.234 185.086C346.961 185.086 348.355 185.684 349.418 186.879C350.488 188.074 351.023 189.664 351.023 191.648V191.801C351.023 193.035 350.785 194.145 350.309 195.129C349.84 196.105 349.164 196.867 348.281 197.414C347.406 197.961 346.398 198.234 345.258 198.234C343.539 198.234 342.145 197.637 341.074 196.441C340.012 195.246 339.48 193.664 339.48 191.695V191.543ZM341.66 191.801C341.66 193.207 341.984 194.336 342.633 195.188C343.289 196.039 344.164 196.465 345.258 196.465C346.359 196.465 347.234 196.035 347.883 195.176C348.531 194.309 348.855 193.098 348.855 191.543C348.855 190.152 348.523 189.027 347.859 188.168C347.203 187.301 346.328 186.867 345.234 186.867C344.164 186.867 343.301 187.293 342.645 188.145C341.988 188.996 341.66 190.215 341.66 191.801ZM346.219 180H348.844L345.703 183.445H343.957L346.219 180ZM355.793 185.32L355.863 186.914C356.832 185.695 358.098 185.086 359.66 185.086C362.34 185.086 363.691 186.598 363.715 189.621V198H361.547V189.609C361.539 188.695 361.328 188.02 360.914 187.582C360.508 187.145 359.871 186.926 359.004 186.926C358.301 186.926 357.684 187.113 357.152 187.488C356.621 187.863 356.207 188.355 355.91 188.965V198H353.742V185.32H355.793Z" fill="white"/>
<path d="M428.238 191.098H424.23V198H421.969V180.938H427.617C429.539 180.938 431.016 181.375 432.047 182.25C433.086 183.125 433.605 184.398 433.605 186.07C433.605 187.133 433.316 188.059 432.738 188.848C432.168 189.637 431.371 190.227 430.348 190.617L434.355 197.859V198H431.941L428.238 191.098ZM424.23 189.258H427.688C428.805 189.258 429.691 188.969 430.348 188.391C431.012 187.812 431.344 187.039 431.344 186.07C431.344 185.016 431.027 184.207 430.395 183.645C429.77 183.082 428.863 182.797 427.676 182.789H424.23V189.258ZM441.691 198.234C439.973 198.234 438.574 197.672 437.496 196.547C436.418 195.414 435.879 193.902 435.879 192.012V191.613C435.879 190.355 436.117 189.234 436.594 188.25C437.078 187.258 437.75 186.484 438.609 185.93C439.477 185.367 440.414 185.086 441.422 185.086C443.07 185.086 444.352 185.629 445.266 186.715C446.18 187.801 446.637 189.355 446.637 191.379V192.281H438.047C438.078 193.531 438.441 194.543 439.137 195.316C439.84 196.082 440.73 196.465 441.809 196.465C442.574 196.465 443.223 196.309 443.754 195.996C444.285 195.684 444.75 195.27 445.148 194.754L446.473 195.785C445.41 197.418 443.816 198.234 441.691 198.234ZM441.422 186.867C440.547 186.867 439.812 187.188 439.219 187.828C438.625 188.461 438.258 189.352 438.117 190.5H444.469V190.336C444.406 189.234 444.109 188.383 443.578 187.781C443.047 187.172 442.328 186.867 441.422 186.867ZM459.867 191.801C459.867 193.73 459.426 195.285 458.543 196.465C457.66 197.645 456.465 198.234 454.957 198.234C453.418 198.234 452.207 197.746 451.324 196.77V202.875H449.156V185.32H451.137L451.242 186.727C452.125 185.633 453.352 185.086 454.922 185.086C456.445 185.086 457.648 185.66 458.531 186.809C459.422 187.957 459.867 189.555 459.867 191.602V191.801ZM457.699 191.555C457.699 190.125 457.395 188.996 456.785 188.168C456.176 187.34 455.34 186.926 454.277 186.926C452.965 186.926 451.98 187.508 451.324 188.672V194.73C451.973 195.887 452.965 196.465 454.301 196.465C455.34 196.465 456.164 196.055 456.773 195.234C457.391 194.406 457.699 193.18 457.699 191.555ZM470.461 198C470.336 197.75 470.234 197.305 470.156 196.664C469.148 197.711 467.945 198.234 466.547 198.234C465.297 198.234 464.27 197.883 463.465 197.18C462.668 196.469 462.27 195.57 462.27 194.484C462.27 193.164 462.77 192.141 463.77 191.414C464.777 190.68 466.191 190.312 468.012 190.312H470.121V189.316C470.121 188.559 469.895 187.957 469.441 187.512C468.988 187.059 468.32 186.832 467.438 186.832C466.664 186.832 466.016 187.027 465.492 187.418C464.969 187.809 464.707 188.281 464.707 188.836H462.527C462.527 188.203 462.75 187.594 463.195 187.008C463.648 186.414 464.258 185.945 465.023 185.602C465.797 185.258 466.645 185.086 467.566 185.086C469.027 185.086 470.172 185.453 471 186.188C471.828 186.914 472.258 187.918 472.289 189.199V195.035C472.289 196.199 472.438 197.125 472.734 197.812V198H470.461ZM466.863 196.348C467.543 196.348 468.188 196.172 468.797 195.82C469.406 195.469 469.848 195.012 470.121 194.449V191.848H468.422C465.766 191.848 464.438 192.625 464.438 194.18C464.438 194.859 464.664 195.391 465.117 195.773C465.57 196.156 466.152 196.348 466.863 196.348ZM481.816 187.266C481.488 187.211 481.133 187.184 480.75 187.184C479.328 187.184 478.363 187.789 477.855 189V198H475.688V185.32H477.797L477.832 186.785C478.543 185.652 479.551 185.086 480.855 185.086C481.277 185.086 481.598 185.141 481.816 185.25V187.266ZM491.18 198C491.055 197.75 490.953 197.305 490.875 196.664C489.867 197.711 488.664 198.234 487.266 198.234C486.016 198.234 484.988 197.883 484.184 197.18C483.387 196.469 482.988 195.57 482.988 194.484C482.988 193.164 483.488 192.141 484.488 191.414C485.496 190.68 486.91 190.312 488.73 190.312H490.84V189.316C490.84 188.559 490.613 187.957 490.16 187.512C489.707 187.059 489.039 186.832 488.156 186.832C487.383 186.832 486.734 187.027 486.211 187.418C485.688 187.809 485.426 188.281 485.426 188.836H483.246C483.246 188.203 483.469 187.594 483.914 187.008C484.367 186.414 484.977 185.945 485.742 185.602C486.516 185.258 487.363 185.086 488.285 185.086C489.746 185.086 490.891 185.453 491.719 186.188C492.547 186.914 492.977 187.918 493.008 189.199V195.035C493.008 196.199 493.156 197.125 493.453 197.812V198H491.18ZM487.582 196.348C488.262 196.348 488.906 196.172 489.516 195.82C490.125 195.469 490.566 195.012 490.84 194.449V191.848H489.141C486.484 191.848 485.156 192.625 485.156 194.18C485.156 194.859 485.383 195.391 485.836 195.773C486.289 196.156 486.871 196.348 487.582 196.348ZM502.535 187.266C502.207 187.211 501.852 187.184 501.469 187.184C500.047 187.184 499.082 187.789 498.574 189V198H496.406V185.32H498.516L498.551 186.785C499.262 185.652 500.27 185.086 501.574 185.086C501.996 185.086 502.316 185.141 502.535 185.25V187.266Z" fill="white"/>
</svg>
